<svg width="34" height="34" viewBox="0 0 34 34" fill="none" xmlns="http://www.w3.org/2000/svg">
  <rect x="1" y="1" width="32" height="32" rx="8" fill="#16161E" stroke="#292E42" stroke-width="1"/>
  <g transform="translate(8, 8) scale(0.75)">
    <path d="M19 3a2 2 0 0 1 2 2v14a2 2 0 0 1-2 2H5a2 2 0 0 1-2-2V5a2 2 0 0 1 2-2h14m-.5 15.5v-5.3a3.26 3.26 0 0 0-3.26-3.26c-.85 0-1.84.52-2.28 1.3v-1.11h-2.79v8.37h2.79v-4.93c0-.77.62-1.4 1.39-1.4a1.4 1.4 0 0 1 1.4 1.4v4.93h2.75M6.46 10.9v8.37H9.25V10.9H6.46M7.86 6.55a1.62 1.62 0 0 0-1.63 1.62c0 .9.73 1.63 1.63 1.63.9 0 1.63-.73 1.63-1.63 0-.9-.73-1.62-1.63-1.62" fill="#C0CAF5"/>
  </g>
</svg>